<svg id="Layer_1" data-name="Layer 1" xmlns="http://www.w3.org/2000/svg" viewBox="0 0 240.86 62.09"><defs><style>.cls-1,.cls-4{fill:#231f20;}.cls-1,.cls-2{stroke:#231f20;stroke-miterlimit:10;stroke-width:0.5px;}.cls-2{fill:none;}.cls-3{fill:#fff3b4;}.cls-5{font-size:41px;fill:#fff;font-family:PTSans-Narrow, PT Sans Narrow;}.cls-6{letter-spacing:-0.03em;}.cls-7{letter-spacing:-0.01em;}.cls-8{letter-spacing:0em;}</style></defs><polygon class="cls-1" points="25.8 0.25 35.9 0.25 35.9 5.44 44.89 10.51 49.34 5.82 58.77 15.21 52.26 20.14 53.64 24.93 60.63 24.93 60.63 38.35 52.86 38.35 49.34 41.85 57.77 49.76 46.84 58.68 41.52 52.03 38.25 53.86 36.91 61.84 24.22 61.84 24.22 54.48 17.83 52.03 12.91 57.46 3.63 47.42 9.17 42.94 7.24 38.03 0.25 38.25 0.25 22.74 5.27 23.4 7.46 18.57 2.76 14.34 9.17 5.44 16.48 10.29 24.22 6.58 24.22 0.25 25.8 0.25"/><polygon class="cls-2" points="27.03 22.09 34.02 22.09 39.49 27.29 39.49 35.48 34.81 39.99 27.03 39.99 21.49 35.84 21.49 27 27.03 22.09"/><polygon class="cls-3" points="27.03 3.85 27.93 20.13 33.34 20.13 34.02 4.12 27.03 3.85"/><polygon class="cls-3" points="27.03 42.08 27.03 58.47 34.81 58.47 34.02 42.11 27.03 42.08"/><polygon class="cls-3" points="57.49 27.74 42.59 29.19 42.88 33.98 57.34 34.89 57.49 27.74"/><polygon class="cls-3" points="19.59 28.39 3.09 26.86 3.38 34.89 19.59 34.03 19.59 28.39"/><polygon class="cls-3" points="7.37 14.33 20.4 24.94 23.61 21.24 10.92 9.59 7.37 14.33"/><polyline class="cls-3" points="47.54 54.08 52.56 48.87 40.95 37.69 37.86 41.07 46.44 53.95"/><polyline class="cls-3" points="24.22 40.87 20.68 37.66 8.09 48.18 12.81 52.88 24.22 40.87"/><polyline class="cls-3" points="53.79 15.77 49.27 11.01 37.86 21.34 40.81 25.55 53.69 15.86"/><polygon class="cls-3" points="26.1 26.17 34.02 26.17 36.86 29.68 30.92 37.69 24.67 30.88 26.1 26.17"/><polygon class="cls-4" points="240.86 47.26 65.7 48.63 65.1 10.37 240.26 9 240.86 47.26"/><text class="cls-5" transform="translate(75.65 43.18)">NF<tspan class="cls-6" x="38.99" y="0">T</tspan><tspan x="56.01" y="0" xml:space="preserve"> G</tspan><tspan class="cls-7" x="84.87" y="0">A</tspan><tspan class="cls-8" x="103.77" y="0">ZER</tspan></text></svg>